<svg xmlns="http://www.w3.org/2000/svg" viewBox="0 0 400 250" role="img" aria-labelledby="t">
  <title id="t">ใบเสร็จและหนังสือรับรองการหักภาษี ณ ที่จ่าย (placeholder)</title>
  <rect width="400" height="250" fill="#fbf7ef"/>
  <circle cx="60" cy="210" r="90" fill="#eaf5ee"/>
  <!-- certificate -->
  <g transform="rotate(-5 170 125)">
    <rect x="90" y="36" width="160" height="186" rx="10" fill="#fff" stroke="#e6ddcb" stroke-width="2"/>
    <rect x="106" y="54" width="70" height="10" rx="5" fill="#1a643d"/>
    <text x="232" y="64" text-anchor="end" font-family="Arial,Helvetica,sans-serif" font-size="12" font-weight="700" fill="#2f8f5b">50 ทวิ</text>
    <path d="M106 84h128M106 100h128M106 116h96M106 132h128M106 148h80" stroke="#e9efe9" stroke-width="6" stroke-linecap="round"/>
    <circle cx="206" cy="186" r="20" fill="none" stroke="#2f8f5b" stroke-width="3" stroke-dasharray="4 3"/>
    <path d="M197 186l6 6 12-12" stroke="#2f8f5b" stroke-width="3" fill="none" stroke-linecap="round" stroke-linejoin="round"/>
  </g>
  <!-- receipt -->
  <path d="M250 60h90v160l-11-8-11 8-12-8-11 8-11-8-12 8-11-8-11 8z" fill="#fff" stroke="#e6ddcb" stroke-width="2"/>
  <path d="M264 84h62M264 100h40M264 116h62M264 132h50" stroke="#e9efe9" stroke-width="6" stroke-linecap="round"/>
  <rect x="264" y="152" width="62" height="24" rx="6" fill="#e1f1e6"/>
  <!-- percent badge -->
  <circle cx="330" cy="58" r="30" fill="#f5c93a"/>
  <text x="330" y="68" text-anchor="middle" font-family="Arial,Helvetica,sans-serif" font-size="26" font-weight="800" fill="#10402a">%</text>
</svg>
